HIERARCHY
ROOT Hips
{
	OFFSET 0.000000 0.000000 0.000000 
	CHANNELS 6 Xposition Yposition Zposition Zrotation Yrotation Xrotation
	JOINT LeftUpLeg
	{
		OFFSET 1.363060 -1.794630 0.839290 
		CHANNELS 3 Zrotation Yrotation Xrotation
		JOINT LeftLeg
		{
			OFFSET 2.448110 -6.726130 0.000000 
			CHANNELS 3 Zrotation Yrotation Xrotation
			JOINT LeftFoot
			{
				OFFSET 2.562200 -7.039590 0.000000 
				CHANNELS 3 Zrotation Yrotation Xrotation
				JOINT LeftToeBase
				{
					OFFSET 0.157640 -0.433110 2.322550 
					CHANNELS 3 Zrotation Yrotation Xrotation
					End Site
					{
						OFFSET 0.000000 0.000000 0.000000 
					}
				}
			}
		}
	}
	JOINT RightUpLeg
	{
		OFFSET -1.305520 -1.794630 0.839290 
		CHANNELS 3 Zrotation Yrotation Xrotation
		JOINT RightLeg
		{
			OFFSET -2.542530 -6.985550 0.000000 
			CHANNELS 3 Zrotation Yrotation Xrotation
			JOINT RightFoot
			{
				OFFSET -2.568260 -7.056230 0.000000 
				CHANNELS 3 Zrotation Yrotation Xrotation
				JOINT RightToeBase
				{
					OFFSET -0.164730 -0.452590 2.363150 
					CHANNELS 3 Zrotation Yrotation Xrotation
					End Site
					{
						OFFSET 0.000000 0.000000 0.000000 
					}
				}
			}
		}
	}
	JOINT Spine
	{
		OFFSET 0.028270 2.035590 -0.193380 
		CHANNELS 3 Zrotation Yrotation Xrotation
		JOINT Spine1
		{
			OFFSET 0.056720 2.048850 -0.042750 
			CHANNELS 3 Zrotation Yrotation Xrotation
			JOINT Neck1
			{
				OFFSET -0.054170 1.746240 0.172020 
				CHANNELS 3 Zrotation Yrotation Xrotation
				JOINT Head
				{
					OFFSET 0.104070 1.761360 -0.123970 
					CHANNELS 3 Zrotation Yrotation Xrotation
					End Site
					{
						OFFSET 0.000000 0.000000 0.000000 
					}
				}
			}
			JOINT LeftArm
			{
				OFFSET 3.362410 1.200890 -0.311210 
				CHANNELS 3 Zrotation Yrotation Xrotation
				JOINT LeftForeArm
				{
					OFFSET 4.983000 -0.000000 -0.000000 
					CHANNELS 3 Zrotation Yrotation Xrotation
					JOINT LeftHand
					{
						OFFSET 3.483560 -0.000000 -0.000000 
						CHANNELS 3 Zrotation Yrotation Xrotation
						JOINT LeftHandIndex1
						{
							OFFSET 0.715260 -0.000000 -0.000000 
							CHANNELS 3 Zrotation Yrotation Xrotation
							End Site
							{
								OFFSET 0.000000 0.000000 0.000000 
							}
						}
					}
				}
			}
			JOINT RightArm
			{
				OFFSET -3.136600 1.374050 -0.404650 
				CHANNELS 3 Zrotation Yrotation Xrotation
				JOINT RightForeArm
				{
					OFFSET -5.241900 -0.000000 -0.000000 
					CHANNELS 3 Zrotation Yrotation Xrotation
					JOINT RightHand
					{
						OFFSET -3.444170 -0.000000 -0.000000 
						CHANNELS 3 Zrotation Yrotation Xrotation
						JOINT RightHandIndex1
						{
							OFFSET -0.622530 -0.000000 -0.000000 
							CHANNELS 3 Zrotation Yrotation Xrotation
							End Site
							{
								OFFSET 0.000000 0.000000 0.000000 
							}
						}
					}
				}
			}
		}
	}
}
MOTION
Frames: 7
Frame Time: 0.041667
-30.973190 17.519683 -2.110080 9.690811 82.086859 39.335833 -16.762605 -5.120022 -33.906625 0.787665 11.107872 26.418349 -3.127101 19.899978 -22.472218 0.019900 0.911500 2.505500 13.362284 7.746214 -38.070580 -2.178252 -11.461814 27.528678 -0.279613 -12.146741 -18.973499 -0.004400 -0.426300 1.171500 0.645144 2.037257 -2.107236 5.354784 1.014559 16.613607 0.217879 9.256631 8.367859 -1.190900 3.874000 9.676400 -79.250280 -3.130887 42.991042 12.798521 -28.384619 -3.744240 -0.416776 -0.065307 -10.761676 -7.125000 0.000000 0.000000 66.042518 2.236633 20.697935 -13.051060 25.774586 -4.399999 1.323643 0.487759 -6.018662 7.125000 0.000000 0.000000 
-30.943044 17.522729 -2.157136 9.280975 81.477834 38.573740 -17.130050 -4.793330 -33.492659 0.767879 11.078330 26.328438 -3.101645 19.891447 -22.730334 0.041100 1.307900 3.596400 13.046078 6.992496 -38.581765 -2.388205 -11.772850 28.747889 -0.322649 -10.816463 -17.896283 -0.003800 0.395700 -1.087300 0.353001 2.717375 -2.254437 4.432531 1.437967 15.692613 0.280481 9.738374 8.477533 -1.259900 4.189000 9.602200 -77.861670 -2.408961 44.245648 12.564969 -28.057026 -3.612706 -0.402862 -0.105691 -10.693449 -7.125000 0.000000 0.000000 67.310620 1.020140 19.387981 -13.228931 26.026033 -4.497393 1.325476 0.407291 -5.886366 7.125000 0.000000 0.000000 
-30.932751 17.522939 -2.202302 7.894103 81.204461 36.603932 -17.084608 -4.756961 -32.894001 0.787035 11.129459 26.492816 -3.007621 19.699019 -23.228139 0.069900 1.705700 4.693000 13.182852 6.279099 -38.523573 -2.516323 -11.914195 29.377367 -0.350802 -9.804543 -17.100401 -0.067900 1.680900 -4.624600 0.354191 2.739410 -2.326009 4.246839 1.518152 15.069433 0.213956 10.797194 8.605970 -1.290100 4.730200 9.552100 -77.393889 -2.192668 44.641232 12.138388 -27.531612 -3.428063 -0.386393 -0.126066 -10.205625 -7.125000 0.000000 0.000000 67.600646 0.323084 18.866089 -13.298895 26.112277 -4.533142 1.325535 0.377827 -5.813374 7.125000 0.000000 0.000000 
-30.943990 17.522939 -2.247048 4.504422 81.016445 32.507505 -16.615508 -4.885378 -32.102677 0.795780 11.157020 26.589930 -2.982526 19.872891 -23.994908 0.067300 1.673200 4.603400 13.683652 5.803174 -38.095383 -2.623929 -12.033996 29.860530 -0.403764 -8.456840 -16.725751 -0.134300 2.361800 -6.506600 0.413049 2.619780 -2.297992 4.002615 1.511532 14.887101 0.143043 12.139817 8.645987 -1.285700 5.394500 9.510600 -76.997213 -2.446418 44.403771 11.699063 -26.983551 -3.260931 -0.371685 -0.133601 -9.373860 -7.125000 0.000000 0.000000 67.717427 0.377855 18.465322 -13.187237 25.951875 -4.446940 1.317646 0.328638 -5.454554 7.125000 0.000000 0.000000 
-30.961951 17.525775 -2.287802 0.794010 80.736763 28.074119 -16.064759 -5.087770 -31.313527 0.815455 11.205702 26.752585 -3.015337 20.327501 -24.873195 0.046100 1.385100 3.809000 14.102131 5.739524 -37.195433 -2.661057 -12.037762 29.906689 -0.460526 -7.064088 -16.614092 -0.081100 1.836900 -5.055200 0.430917 2.703548 -2.233685 3.635148 1.594773 14.688563 -0.041561 13.448509 8.791581 -1.385100 6.047000 9.603200 -76.553762 -2.970632 44.021237 11.071717 -26.180491 -3.028938 -0.363969 -0.128229 -8.214218 -7.125000 0.000000 0.000000 67.957492 0.481328 17.751714 -13.061700 25.745453 -4.327825 1.294962 0.260333 -5.249086 7.125000 0.000000 0.000000 
-30.968148 17.527771 -2.317107 -2.313155 80.608411 24.512428 -15.527154 -5.321735 -30.739600 0.829729 11.232722 26.867607 -2.955943 20.365582 -25.552920 0.059500 1.574400 4.330700 14.377811 5.976202 -36.260336 -2.618158 -11.924191 29.525914 -0.490610 -6.387451 -16.682595 -0.042900 1.336800 -3.675900 0.411279 2.829270 -2.230962 3.130666 1.717206 14.364038 -0.398884 14.730632 9.030955 -1.622200 6.699700 9.773300 -76.063708 -3.229887 43.352140 10.458998 -25.403551 -2.818030 -0.358014 -0.131659 -6.721814 -7.125000 0.000000 0.000000 68.341026 0.188519 17.040584 -13.050709 25.721976 -4.310724 1.280802 0.235849 -5.612846 7.125000 0.000000 0.000000 
-30.962791 17.530712 -2.337064 -4.867947 80.685138 21.740514 -15.108741 -5.328985 -30.466123 0.849165 11.245204 26.966691 -2.836169 19.986273 -25.774404 0.095400 1.992000 5.483500 14.628931 6.250020 -35.314275 -2.495533 -11.666919 28.666169 -0.515028 -6.425196 -17.153184 -0.031500 1.146300 -3.151600 0.441170 2.801480 -2.207787 2.809096 1.750546 14.271527 -0.803785 16.144784 9.330568 -1.846200 7.404000 10.007200 -75.727795 -3.573560 42.339324 9.874570 -24.672246 -2.633091 -0.355681 -0.129521 -4.701217 -7.125000 0.000000 0.000000 68.464362 -0.110954 16.670490 -13.098647 25.785120 -4.327418 1.266833 0.253466 -6.126271 7.125000 0.000000 0.000000 
